<svg xmlns="http://www.w3.org/2000/svg" xmlns:xlink="http://www.w3.org/1999/xlink" width="500" zoomAndPan="magnify" viewBox="0 0 375 374.999991" height="500" preserveAspectRatio="xMidYMid meet" version="1.0"><defs><g/><clipPath id="e69f07a137"><path d="M 17.25 54.28125 L 357.75 54.28125 L 357.75 320.53125 L 17.25 320.53125 Z M 17.25 54.28125 " clip-rule="nonzero"/></clipPath><clipPath id="6161b4e6ae"><path d="M 0.121094 11 L 22 11 L 22 34 L 0.121094 34 Z M 0.121094 11 " clip-rule="nonzero"/></clipPath><clipPath id="22444c1f85"><rect x="0" width="212" y="0" height="43"/></clipPath></defs><g clip-path="url(#e69f07a137)"><path fill="#000000" d="M 69.050781 58.441406 C 78.058594 58.441406 85.75 64.1875 88.644531 72.210938 C 102.144531 63.78125 117.613281 59.507812 134.648438 59.507812 C 154.019531 59.507812 171.300781 64.898438 186.003906 75.527344 C 191.441406 79.460938 196.316406 84.039062 200.578125 89.203125 C 205.035156 84.195312 209.917969 79.726562 215.175781 75.855469 C 229.914062 65.007812 247.085938 59.507812 266.21875 59.507812 C 291.136719 59.507812 312.203125 68.417969 328.832031 85.996094 C 345.179688 103.292969 353.460938 126.761719 353.460938 155.757812 L 353.460938 295.578125 C 353.460938 307.050781 344.121094 316.382812 332.644531 316.382812 L 305.957031 316.382812 C 294.480469 316.382812 285.136719 307.050781 285.136719 295.578125 L 285.136719 169.359375 C 285.136719 147.378906 280.699219 137.613281 276.972656 133.292969 C 272.132812 127.679688 266.121094 125.0625 258.054688 125.0625 C 247.589844 125.0625 240.101562 128.703125 234.484375 136.523438 C 227.441406 146.328125 223.207031 160.492188 221.894531 178.628906 L 221.894531 295.578125 C 221.894531 307.050781 212.554688 316.382812 201.074219 316.382812 L 174.386719 316.382812 C 162.910156 316.382812 153.570312 307.050781 153.570312 295.578125 L 153.570312 169.359375 C 153.570312 147.386719 149.125 137.617188 145.398438 133.292969 C 140.558594 127.679688 134.546875 125.0625 126.480469 125.0625 C 114.53125 125.0625 106.925781 129.25 101.054688 139.066406 C 93.628906 151.460938 89.867188 169.125 89.867188 191.574219 L 89.867188 295.578125 C 89.867188 307.050781 80.527344 316.382812 69.050781 316.382812 L 42.359375 316.382812 C 30.878906 316.382812 21.539062 307.050781 21.539062 295.578125 L 21.539062 79.246094 C 21.539062 67.773438 30.878906 58.441406 42.359375 58.441406 L 69.050781 58.441406 M 69.050781 54.28125 L 42.359375 54.28125 C 28.582031 54.28125 17.375 65.480469 17.375 79.246094 L 17.375 295.578125 C 17.375 309.34375 28.582031 320.542969 42.359375 320.542969 L 69.050781 320.542969 C 82.824219 320.542969 94.03125 309.34375 94.03125 295.578125 L 94.03125 191.574219 C 94.03125 169.886719 97.597656 152.9375 104.625 141.203125 C 109.714844 132.695312 116.046875 129.222656 126.480469 129.222656 C 133.335938 129.222656 138.199219 131.316406 142.246094 136.007812 C 144.917969 139.109375 149.40625 147.570312 149.40625 169.359375 L 149.40625 295.578125 C 149.40625 309.34375 160.613281 320.542969 174.386719 320.542969 L 201.074219 320.542969 C 214.851562 320.542969 226.058594 309.34375 226.058594 295.578125 L 226.058594 178.78125 C 227.324219 161.496094 231.300781 148.09375 237.867188 138.949219 C 242.699219 132.222656 248.921875 129.222656 258.054688 129.222656 C 264.910156 129.222656 269.773438 131.316406 273.820312 136.007812 C 276.492188 139.109375 280.976562 147.566406 280.976562 169.359375 L 280.976562 295.578125 C 280.976562 309.34375 292.183594 320.542969 305.957031 320.542969 L 332.644531 320.542969 C 346.417969 320.542969 357.625 309.34375 357.625 295.578125 L 357.625 155.757812 C 357.625 125.664062 348.957031 101.230469 331.863281 83.136719 C 314.410156 64.699219 292.328125 55.347656 266.21875 55.347656 C 246.179688 55.347656 228.175781 61.121094 212.703125 72.503906 C 208.464844 75.628906 204.433594 79.144531 200.675781 82.996094 C 196.964844 78.988281 192.867188 75.355469 188.445312 72.15625 C 173.015625 61.003906 154.914062 55.347656 134.648438 55.347656 C 118.480469 55.347656 103.625 59.042969 90.425781 66.335938 C 85.957031 58.972656 77.875 54.28125 69.050781 54.28125 Z M 69.050781 54.28125 " fill-opacity="1" fill-rule="nonzero"/></g><path fill="#58595b" d="M 320.550781 289.246094 L 318.46875 289.246094 L 318.46875 280.921875 L 320.550781 280.921875 Z M 320.550781 272.601562 L 318.46875 272.601562 L 318.46875 264.28125 L 320.550781 264.28125 Z M 320.550781 255.960938 L 318.46875 255.960938 L 318.46875 247.636719 L 320.550781 247.636719 Z M 320.550781 239.316406 L 318.46875 239.316406 L 318.46875 230.996094 L 320.550781 230.996094 Z M 320.550781 222.671875 L 318.46875 222.671875 L 318.46875 214.351562 L 320.550781 214.351562 Z M 320.550781 206.03125 L 318.46875 206.03125 L 318.46875 197.710938 L 320.550781 197.710938 Z M 320.550781 189.386719 L 318.46875 189.386719 L 318.46875 181.066406 L 320.550781 181.066406 Z M 320.550781 172.746094 L 318.46875 172.746094 L 318.46875 164.421875 L 320.550781 164.421875 Z M 318.4375 156.125 C 318.378906 153.292969 318.21875 150.523438 317.960938 147.898438 L 320.035156 147.699219 C 320.296875 150.375 320.457031 153.195312 320.519531 156.082031 Z M 316.804688 139.757812 C 316.273438 136.996094 315.605469 134.320312 314.820312 131.804688 L 316.808594 131.183594 C 317.617188 133.773438 318.304688 136.527344 318.847656 139.367188 Z M 311.875 124.179688 C 310.710938 121.683594 309.363281 119.292969 307.875 117.074219 L 309.605469 115.914062 C 311.152344 118.222656 312.550781 120.707031 313.761719 123.296875 Z M 302.820312 110.6875 L 302.574219 110.429688 C 300.753906 108.507812 298.816406 106.753906 296.800781 105.207031 L 298.070312 103.558594 C 300.171875 105.167969 302.191406 107 304.082031 108.996094 L 304.339844 109.269531 Z M 220.921875 110.292969 L 219.675781 108.625 C 221.617188 107.175781 223.945312 105.460938 226.5 103.757812 L 227.65625 105.492188 C 225.140625 107.167969 222.839844 108.859375 220.921875 110.292969 Z M 234.703125 101.261719 L 233.726562 99.421875 C 236.300781 98.0625 238.894531 96.894531 241.441406 95.953125 L 242.164062 97.90625 C 239.703125 98.8125 237.191406 99.941406 234.703125 101.261719 Z M 289.9375 100.851562 C 287.582031 99.632812 285.050781 98.585938 282.417969 97.742188 L 283.054688 95.761719 C 285.796875 96.640625 288.4375 97.730469 290.894531 99.003906 Z M 274.472656 95.816406 C 271.917969 95.375 269.171875 95.058594 266.316406 94.878906 L 266.449219 92.804688 C 269.378906 92.988281 272.195312 93.3125 274.828125 93.765625 Z M 250.007812 95.679688 L 249.597656 93.636719 C 252.359375 93.085938 255.195312 92.75 258.023438 92.648438 L 258.101562 94.726562 C 255.382812 94.824219 252.660156 95.148438 250.007812 95.679688 Z M 250.007812 95.679688 " fill-opacity="1" fill-rule="nonzero"/><path fill="#58595b" d="M 189.546875 289.246094 L 187.464844 289.246094 L 187.464844 280.921875 L 189.546875 280.921875 Z M 189.546875 272.601562 L 187.464844 272.601562 L 187.464844 264.28125 L 189.546875 264.28125 Z M 189.546875 255.960938 L 187.464844 255.960938 L 187.464844 247.636719 L 189.546875 247.636719 Z M 189.546875 239.316406 L 187.464844 239.316406 L 187.464844 230.996094 L 189.546875 230.996094 Z M 189.546875 222.671875 L 187.464844 222.671875 L 187.464844 214.351562 L 189.546875 214.351562 Z M 189.546875 206.03125 L 187.464844 206.03125 L 187.464844 197.710938 L 189.546875 197.710938 Z M 189.546875 189.386719 L 187.464844 189.386719 L 187.464844 181.066406 L 189.546875 181.066406 Z M 189.546875 172.746094 L 187.464844 172.746094 L 187.464844 164.421875 L 189.546875 164.421875 Z M 187.429688 156.128906 C 187.359375 153.328125 187.171875 150.566406 186.875 147.917969 L 188.945312 147.6875 C 189.246094 150.394531 189.4375 153.214844 189.511719 156.078125 Z M 185.558594 139.8125 C 184.972656 137.089844 184.242188 134.433594 183.382812 131.910156 L 185.355469 131.242188 C 186.238281 133.839844 186.992188 136.578125 187.59375 139.375 Z M 180.257812 124.351562 C 179.042969 121.890625 177.65625 119.519531 176.140625 117.296875 L 177.859375 116.125 C 179.433594 118.425781 180.867188 120.886719 182.125 123.433594 Z M 171.054688 110.914062 C 170.910156 110.753906 170.761719 110.597656 170.613281 110.4375 L 170.597656 110.425781 C 168.851562 108.578125 167.007812 106.851562 165.117188 105.289062 L 166.445312 103.6875 C 168.402344 105.304688 170.308594 107.089844 172.109375 108.996094 C 172.273438 109.167969 172.429688 109.335938 172.585938 109.503906 Z M 158.46875 100.550781 C 156.144531 99.140625 153.695312 97.894531 151.195312 96.851562 L 151.996094 94.933594 C 154.59375 96.015625 157.136719 97.308594 159.550781 98.773438 Z M 103.386719 97.53125 L 102.527344 95.636719 C 105.082031 94.476562 107.757812 93.496094 110.476562 92.714844 L 111.050781 94.714844 C 108.429688 95.464844 105.851562 96.414062 103.386719 97.53125 Z M 143.449219 94.277344 C 140.859375 93.625 138.148438 93.136719 135.402344 92.828125 L 135.632812 90.761719 C 138.476562 91.078125 141.277344 91.582031 143.960938 92.261719 Z M 119.050781 93.03125 L 118.761719 90.96875 C 121.496094 90.585938 124.332031 90.378906 127.195312 90.347656 L 127.214844 92.429688 C 124.445312 92.457031 121.695312 92.660156 119.050781 93.03125 Z M 119.050781 93.03125 " fill-opacity="1" fill-rule="nonzero"/><path fill="#414042" d="M 116.78125 102.109375 C 116.78125 102.726562 116.75 103.339844 116.691406 103.953125 C 116.628906 104.566406 116.539062 105.175781 116.417969 105.78125 C 116.296875 106.386719 116.148438 106.984375 115.96875 107.574219 C 115.789062 108.164062 115.582031 108.742188 115.347656 109.3125 C 115.109375 109.882812 114.847656 110.4375 114.558594 110.980469 C 114.265625 111.527344 113.949219 112.054688 113.605469 112.566406 C 113.265625 113.078125 112.898438 113.574219 112.503906 114.050781 C 112.113281 114.527344 111.699219 114.984375 111.265625 115.417969 C 110.828125 115.855469 110.371094 116.269531 109.894531 116.660156 C 109.417969 117.050781 108.921875 117.417969 108.410156 117.757812 C 107.898438 118.101562 107.367188 118.417969 106.824219 118.710938 C 106.28125 119 105.722656 119.261719 105.152344 119.5 C 104.582031 119.734375 104.003906 119.941406 103.414062 120.121094 C 102.824219 120.300781 102.226562 120.449219 101.621094 120.570312 C 101.015625 120.691406 100.40625 120.78125 99.792969 120.839844 C 99.175781 120.902344 98.5625 120.929688 97.945312 120.929688 C 97.328125 120.929688 96.710938 120.902344 96.097656 120.839844 C 95.484375 120.78125 94.875 120.691406 94.269531 120.570312 C 93.664062 120.449219 93.066406 120.300781 92.476562 120.121094 C 91.886719 119.941406 91.304688 119.734375 90.738281 119.5 C 90.167969 119.261719 89.609375 119 89.066406 118.710938 C 88.519531 118.417969 87.992188 118.101562 87.480469 117.757812 C 86.96875 117.417969 86.472656 117.050781 85.996094 116.660156 C 85.519531 116.269531 85.0625 115.855469 84.625 115.417969 C 84.1875 114.984375 83.777344 114.527344 83.382812 114.050781 C 82.992188 113.574219 82.625 113.078125 82.28125 112.566406 C 81.941406 112.054688 81.625 111.527344 81.332031 110.980469 C 81.042969 110.4375 80.777344 109.882812 80.542969 109.3125 C 80.304688 108.742188 80.097656 108.164062 79.917969 107.574219 C 79.742188 106.984375 79.589844 106.386719 79.46875 105.78125 C 79.351562 105.175781 79.261719 104.566406 79.199219 103.953125 C 79.140625 103.339844 79.109375 102.726562 79.109375 102.109375 C 79.109375 101.492188 79.140625 100.878906 79.199219 100.265625 C 79.261719 99.652344 79.351562 99.042969 79.46875 98.4375 C 79.589844 97.832031 79.742188 97.234375 79.917969 96.644531 C 80.097656 96.054688 80.304688 95.476562 80.542969 94.90625 C 80.777344 94.335938 81.042969 93.78125 81.332031 93.238281 C 81.625 92.691406 81.941406 92.164062 82.28125 91.652344 C 82.625 91.140625 82.992188 90.644531 83.382812 90.167969 C 83.777344 89.691406 84.1875 89.234375 84.625 88.800781 C 85.0625 88.363281 85.519531 87.949219 85.996094 87.558594 C 86.472656 87.167969 86.96875 86.800781 87.480469 86.460938 C 87.992188 86.117188 88.519531 85.800781 89.066406 85.507812 C 89.609375 85.21875 90.167969 84.957031 90.738281 84.71875 C 91.304688 84.484375 91.886719 84.277344 92.476562 84.097656 C 93.066406 83.917969 93.664062 83.769531 94.269531 83.648438 C 94.875 83.527344 95.484375 83.4375 96.097656 83.378906 C 96.710938 83.316406 97.328125 83.285156 97.945312 83.285156 C 98.5625 83.285156 99.175781 83.316406 99.792969 83.378906 C 100.40625 83.4375 101.015625 83.527344 101.621094 83.648438 C 102.226562 83.769531 102.824219 83.917969 103.414062 84.097656 C 104.003906 84.277344 104.582031 84.484375 105.152344 84.71875 C 105.722656 84.957031 106.28125 85.21875 106.824219 85.507812 C 107.367188 85.800781 107.898438 86.117188 108.410156 86.460938 C 108.921875 86.800781 109.417969 87.167969 109.894531 87.558594 C 110.371094 87.949219 110.828125 88.363281 111.265625 88.800781 C 111.699219 89.234375 112.113281 89.691406 112.503906 90.167969 C 112.898438 90.644531 113.265625 91.140625 113.605469 91.652344 C 113.949219 92.164062 114.265625 92.691406 114.558594 93.238281 C 114.847656 93.78125 115.109375 94.335938 115.347656 94.90625 C 115.582031 95.476562 115.789062 96.054688 115.96875 96.644531 C 116.148438 97.234375 116.296875 97.832031 116.417969 98.4375 C 116.539062 99.042969 116.628906 99.652344 116.691406 100.265625 C 116.75 100.878906 116.78125 101.492188 116.78125 102.109375 Z M 116.78125 102.109375 " fill-opacity="1" fill-rule="nonzero"/><path fill="#fcfcfc" d="M 105.492188 111.066406 L 94.902344 111.066406 C 95.042969 110.8125 95.226562 110.550781 95.472656 110.285156 C 96.140625 109.546875 97.207031 108.570312 98.648438 107.390625 L 98.632812 107.367188 C 98.851562 107.21875 99.09375 107.011719 99.367188 106.777344 C 101.410156 105.050781 103.039062 103.355469 104.21875 101.738281 C 105.472656 100.023438 106.109375 98.039062 106.109375 95.851562 C 106.109375 93.6875 105.367188 91.929688 103.910156 90.617188 C 102.480469 89.339844 100.566406 88.691406 98.230469 88.691406 C 96.589844 88.691406 94.984375 89.097656 93.464844 89.902344 C 91.960938 90.699219 90.671875 91.824219 89.640625 93.238281 C 89.351562 93.632812 89.417969 94.183594 89.789062 94.5 L 91.746094 96.171875 C 91.941406 96.339844 92.191406 96.425781 92.460938 96.390625 C 92.71875 96.363281 92.953125 96.226562 93.105469 96.019531 C 93.859375 95.007812 94.675781 94.234375 95.53125 93.71875 C 97.175781 92.722656 99.464844 92.726562 100.644531 93.789062 C 101.214844 94.304688 101.492188 94.980469 101.492188 95.851562 C 101.492188 97.3125 101.128906 98.5625 100.375 99.667969 C 99.574219 100.84375 98.421875 102.074219 96.925781 103.34375 C 96.847656 103.410156 96.457031 103.730469 95.75 104.308594 C 94.519531 105.320312 93.515625 106.207031 92.765625 106.941406 C 91.988281 107.707031 91.332031 108.582031 90.804688 109.542969 C 90.242188 110.570312 89.957031 111.699219 89.957031 112.890625 L 89.957031 114.421875 C 89.957031 114.9375 90.378906 115.359375 90.894531 115.359375 L 105.492188 115.359375 C 106.007812 115.359375 106.429688 114.9375 106.429688 114.421875 L 106.429688 112.003906 C 106.429688 111.488281 106.007812 111.066406 105.492188 111.066406 Z M 105.492188 111.066406 " fill-opacity="1" fill-rule="nonzero"/><path fill="#58595b" d="M 57.578125 291.492188 L 55.496094 291.492188 L 55.496094 285.265625 L 57.578125 285.265625 Z M 57.578125 276.941406 L 55.496094 276.941406 L 55.496094 268.621094 L 57.578125 268.621094 Z M 57.578125 260.300781 L 55.496094 260.300781 L 55.496094 251.980469 L 57.578125 251.980469 Z M 57.578125 243.65625 L 55.496094 243.65625 L 55.496094 235.335938 L 57.578125 235.335938 Z M 57.578125 227.015625 L 55.496094 227.015625 L 55.496094 218.691406 L 57.578125 218.691406 Z M 57.578125 210.371094 L 55.496094 210.371094 L 55.496094 202.050781 L 57.578125 202.050781 Z M 57.578125 193.730469 L 55.496094 193.730469 L 55.496094 185.40625 L 57.578125 185.40625 Z M 57.578125 177.085938 L 55.496094 177.085938 L 55.496094 168.765625 L 57.578125 168.765625 Z M 57.578125 160.441406 L 55.496094 160.441406 L 55.496094 152.121094 L 57.578125 152.121094 Z M 57.578125 143.800781 L 55.496094 143.800781 L 55.496094 135.480469 L 57.578125 135.480469 Z M 57.578125 127.15625 L 55.496094 127.15625 L 55.496094 118.835938 L 57.578125 118.835938 Z M 57.578125 110.515625 L 55.496094 110.515625 L 55.496094 102.195312 L 57.578125 102.195312 Z M 57.578125 110.515625 " fill-opacity="1" fill-rule="nonzero"/><path fill="#58595b" d="M 56.535156 300.753906 L 48.015625 286.007812 L 65.054688 286.007812 Z M 56.535156 300.753906 " fill-opacity="1" fill-rule="nonzero"/><path fill="#58595b" d="M 188.507812 300.753906 L 179.984375 286.007812 L 197.027344 286.007812 Z M 188.507812 300.753906 " fill-opacity="1" fill-rule="nonzero"/><path fill="#58595b" d="M 319.507812 300.753906 L 310.988281 286.007812 L 328.03125 286.007812 Z M 319.507812 300.753906 " fill-opacity="1" fill-rule="nonzero"/><path fill="#414042" d="M 75.371094 100.335938 C 75.371094 100.953125 75.339844 101.566406 75.28125 102.179688 C 75.21875 102.792969 75.128906 103.402344 75.007812 104.007812 C 74.890625 104.613281 74.738281 105.210938 74.558594 105.800781 C 74.382812 106.390625 74.175781 106.96875 73.9375 107.539062 C 73.703125 108.109375 73.4375 108.664062 73.148438 109.207031 C 72.855469 109.753906 72.539062 110.28125 72.195312 110.792969 C 71.855469 111.304688 71.488281 111.800781 71.097656 112.277344 C 70.703125 112.753906 70.289062 113.210938 69.855469 113.644531 C 69.417969 114.082031 68.960938 114.496094 68.484375 114.886719 C 68.007812 115.277344 67.511719 115.644531 67 115.988281 C 66.488281 116.328125 65.957031 116.644531 65.414062 116.9375 C 64.871094 117.226562 64.3125 117.488281 63.742188 117.726562 C 63.171875 117.960938 62.59375 118.167969 62.003906 118.347656 C 61.414062 118.527344 60.816406 118.675781 60.210938 118.796875 C 59.605469 118.917969 58.996094 119.007812 58.382812 119.066406 C 57.769531 119.128906 57.152344 119.160156 56.535156 119.160156 C 55.917969 119.160156 55.304688 119.128906 54.6875 119.066406 C 54.074219 119.007812 53.464844 118.917969 52.859375 118.796875 C 52.253906 118.675781 51.65625 118.527344 51.066406 118.347656 C 50.476562 118.167969 49.898438 117.960938 49.328125 117.726562 C 48.757812 117.488281 48.199219 117.226562 47.65625 116.9375 C 47.113281 116.644531 46.582031 116.328125 46.070312 115.988281 C 45.558594 115.644531 45.0625 115.277344 44.585938 114.886719 C 44.109375 114.496094 43.652344 114.082031 43.214844 113.644531 C 42.78125 113.210938 42.367188 112.753906 41.976562 112.277344 C 41.582031 111.800781 41.214844 111.304688 40.875 110.792969 C 40.53125 110.28125 40.214844 109.753906 39.921875 109.207031 C 39.632812 108.664062 39.367188 108.109375 39.132812 107.539062 C 38.898438 106.96875 38.6875 106.390625 38.511719 105.800781 C 38.332031 105.210938 38.179688 104.613281 38.0625 104.007812 C 37.941406 103.402344 37.851562 102.792969 37.789062 102.179688 C 37.730469 101.566406 37.699219 100.953125 37.699219 100.335938 C 37.699219 99.71875 37.730469 99.105469 37.789062 98.492188 C 37.851562 97.878906 37.941406 97.269531 38.0625 96.664062 C 38.179688 96.058594 38.332031 95.460938 38.511719 94.871094 C 38.6875 94.28125 38.898438 93.703125 39.132812 93.132812 C 39.367188 92.5625 39.632812 92.007812 39.921875 91.464844 C 40.214844 90.917969 40.53125 90.390625 40.875 89.878906 C 41.214844 89.367188 41.582031 88.871094 41.976562 88.394531 C 42.367188 87.917969 42.78125 87.460938 43.214844 87.027344 C 43.652344 86.589844 44.109375 86.175781 44.585938 85.785156 C 45.0625 85.394531 45.558594 85.027344 46.070312 84.6875 C 46.582031 84.34375 47.113281 84.027344 47.65625 83.738281 C 48.199219 83.445312 48.757812 83.183594 49.328125 82.945312 C 49.898438 82.710938 50.476562 82.503906 51.066406 82.324219 C 51.65625 82.144531 52.253906 81.996094 52.859375 81.875 C 53.464844 81.753906 54.074219 81.664062 54.6875 81.605469 C 55.304688 81.542969 55.917969 81.515625 56.535156 81.515625 C 57.152344 81.515625 57.769531 81.542969 58.382812 81.605469 C 58.996094 81.664062 59.605469 81.753906 60.210938 81.875 C 60.816406 81.996094 61.414062 82.144531 62.003906 82.324219 C 62.59375 82.503906 63.171875 82.710938 63.742188 82.945312 C 64.3125 83.183594 64.871094 83.445312 65.414062 83.738281 C 65.957031 84.027344 66.488281 84.34375 67 84.6875 C 67.511719 85.027344 68.007812 85.394531 68.484375 85.785156 C 68.960938 86.175781 69.417969 86.589844 69.855469 87.027344 C 70.289062 87.460938 70.703125 87.917969 71.097656 88.394531 C 71.488281 88.871094 71.855469 89.367188 72.195312 89.878906 C 72.539062 90.390625 72.855469 90.917969 73.148438 91.464844 C 73.4375 92.007812 73.703125 92.5625 73.9375 93.132812 C 74.175781 93.703125 74.382812 94.28125 74.558594 94.871094 C 74.738281 95.460938 74.890625 96.058594 75.007812 96.664062 C 75.128906 97.269531 75.21875 97.878906 75.28125 98.492188 C 75.339844 99.105469 75.371094 99.71875 75.371094 100.335938 Z M 75.371094 100.335938 " fill-opacity="1" fill-rule="nonzero"/><path fill="#fcfcfc" d="M 58.714844 87.449219 L 56.296875 87.449219 C 56.023438 87.449219 55.761719 87.570312 55.585938 87.777344 L 48.460938 96.101562 C 48.148438 96.476562 48.167969 97.027344 48.515625 97.375 L 49.867188 98.726562 C 50.234375 99.089844 50.824219 99.089844 51.1875 98.730469 L 55.359375 94.613281 L 55.359375 112.648438 C 55.359375 113.164062 55.78125 113.585938 56.296875 113.585938 L 58.714844 113.585938 C 59.230469 113.585938 59.652344 113.164062 59.652344 112.648438 L 59.652344 88.386719 C 59.652344 87.871094 59.234375 87.449219 58.714844 87.449219 Z M 58.714844 87.449219 " fill-opacity="1" fill-rule="nonzero"/><path fill="#414042" d="M 227.292969 123.078125 C 227.292969 123.695312 227.261719 124.3125 227.203125 124.925781 C 227.140625 125.539062 227.050781 126.148438 226.933594 126.75 C 226.8125 127.355469 226.660156 127.953125 226.484375 128.542969 C 226.304688 129.132812 226.097656 129.710938 225.859375 130.28125 C 225.625 130.851562 225.359375 131.410156 225.070312 131.953125 C 224.777344 132.496094 224.460938 133.023438 224.121094 133.535156 C 223.777344 134.050781 223.410156 134.542969 223.019531 135.019531 C 222.625 135.496094 222.214844 135.953125 221.777344 136.386719 C 221.339844 136.824219 220.882812 137.238281 220.40625 137.628906 C 219.929688 138.019531 219.433594 138.386719 218.921875 138.730469 C 218.410156 139.070312 217.882812 139.386719 217.335938 139.679688 C 216.792969 139.96875 216.234375 140.234375 215.664062 140.46875 C 215.097656 140.703125 214.515625 140.914062 213.925781 141.089844 C 213.335938 141.269531 212.738281 141.417969 212.132812 141.539062 C 211.527344 141.660156 210.917969 141.75 210.304688 141.8125 C 209.691406 141.871094 209.074219 141.902344 208.457031 141.902344 C 207.839844 141.902344 207.226562 141.871094 206.609375 141.8125 C 205.996094 141.75 205.386719 141.660156 204.78125 141.539062 C 204.175781 141.417969 203.578125 141.269531 202.988281 141.089844 C 202.398438 140.914062 201.820312 140.703125 201.25 140.46875 C 200.679688 140.234375 200.121094 139.96875 199.578125 139.679688 C 199.035156 139.386719 198.503906 139.070312 197.992188 138.730469 C 197.480469 138.386719 196.984375 138.019531 196.507812 137.628906 C 196.03125 137.238281 195.574219 136.824219 195.136719 136.386719 C 194.703125 135.953125 194.289062 135.496094 193.898438 135.019531 C 193.503906 134.542969 193.136719 134.050781 192.796875 133.535156 C 192.453125 133.023438 192.136719 132.496094 191.84375 131.953125 C 191.554688 131.410156 191.292969 130.851562 191.054688 130.28125 C 190.820312 129.710938 190.613281 129.132812 190.433594 128.542969 C 190.253906 127.953125 190.105469 127.355469 189.984375 126.75 C 189.863281 126.148438 189.773438 125.539062 189.710938 124.925781 C 189.652344 124.3125 189.621094 123.695312 189.621094 123.078125 C 189.621094 122.460938 189.652344 121.847656 189.710938 121.234375 C 189.773438 120.621094 189.863281 120.011719 189.984375 119.40625 C 190.105469 118.800781 190.253906 118.207031 190.433594 117.617188 C 190.613281 117.027344 190.820312 116.445312 191.054688 115.875 C 191.292969 115.308594 191.554688 114.75 191.84375 114.207031 C 192.136719 113.664062 192.453125 113.132812 192.796875 112.621094 C 193.136719 112.109375 193.503906 111.613281 193.898438 111.136719 C 194.289062 110.660156 194.703125 110.207031 195.136719 109.769531 C 195.574219 109.332031 196.03125 108.921875 196.507812 108.53125 C 196.984375 108.136719 197.480469 107.773438 197.992188 107.429688 C 198.503906 107.085938 199.035156 106.769531 199.578125 106.480469 C 200.121094 106.1875 200.679688 105.925781 201.25 105.691406 C 201.820312 105.453125 202.398438 105.246094 202.988281 105.066406 C 203.578125 104.886719 204.175781 104.738281 204.78125 104.617188 C 205.386719 104.5 205.996094 104.40625 206.609375 104.347656 C 207.226562 104.289062 207.839844 104.257812 208.457031 104.257812 C 209.074219 104.257812 209.691406 104.289062 210.304688 104.347656 C 210.917969 104.40625 211.527344 104.5 212.132812 104.617188 C 212.738281 104.738281 213.335938 104.886719 213.925781 105.066406 C 214.515625 105.246094 215.097656 105.453125 215.664062 105.691406 C 216.234375 105.925781 216.792969 106.1875 217.335938 106.480469 C 217.882812 106.769531 218.410156 107.085938 218.921875 107.429688 C 219.433594 107.773438 219.929688 108.136719 220.40625 108.53125 C 220.882812 108.921875 221.339844 109.332031 221.777344 109.769531 C 222.214844 110.207031 222.625 110.660156 223.019531 111.136719 C 223.410156 111.613281 223.777344 112.109375 224.121094 112.621094 C 224.460938 113.132812 224.777344 113.664062 225.070312 114.207031 C 225.359375 114.75 225.625 115.308594 225.859375 115.875 C 226.097656 116.445312 226.304688 117.027344 226.484375 117.617188 C 226.660156 118.207031 226.8125 118.800781 226.933594 119.40625 C 227.050781 120.011719 227.140625 120.621094 227.203125 121.234375 C 227.261719 121.847656 227.292969 122.460938 227.292969 123.078125 Z M 227.292969 123.078125 " fill-opacity="1" fill-rule="nonzero"/><path fill="#fcfcfc" d="M 215.84375 124.25 C 215.300781 123.480469 214.648438 122.855469 213.902344 122.378906 C 214.414062 121.953125 214.855469 121.445312 215.21875 120.851562 C 215.914062 119.726562 216.261719 118.417969 216.261719 116.964844 C 216.261719 115.570312 215.941406 114.304688 215.300781 113.203125 C 214.65625 112.09375 213.75 111.21875 212.609375 110.59375 C 211.476562 109.972656 210.1875 109.660156 208.777344 109.660156 C 206.921875 109.660156 205.261719 110.183594 203.851562 111.210938 C 202.460938 112.21875 201.371094 113.597656 200.621094 115.308594 C 200.425781 115.75 200.605469 116.273438 201.027344 116.503906 L 202.988281 117.574219 C 203.214844 117.695312 203.476562 117.71875 203.71875 117.644531 C 203.964844 117.566406 204.164062 117.394531 204.277344 117.164062 C 204.832031 116.039062 205.488281 115.171875 206.226562 114.585938 C 206.917969 114.039062 207.75 113.773438 208.777344 113.773438 C 209.683594 113.773438 210.402344 114.058594 210.96875 114.648438 C 211.546875 115.238281 211.828125 116 211.828125 116.964844 C 211.828125 118.058594 211.523438 118.914062 210.902344 119.582031 C 210.304688 120.230469 209.5 120.546875 208.457031 120.546875 L 206.890625 120.546875 C 206.375 120.546875 205.957031 120.964844 205.957031 121.480469 L 205.957031 123.6875 C 205.957031 124.203125 206.375 124.625 206.890625 124.625 L 208.601562 124.625 C 209.824219 124.625 210.792969 125 211.570312 125.773438 C 212.339844 126.546875 212.71875 127.519531 212.71875 128.738281 C 212.71875 129.914062 212.347656 130.847656 211.589844 131.59375 C 210.828125 132.347656 209.898438 132.710938 208.746094 132.710938 C 207.761719 132.710938 206.933594 132.433594 206.203125 131.863281 C 205.441406 131.261719 204.792969 130.410156 204.285156 129.335938 C 204.171875 129.097656 203.964844 128.921875 203.714844 128.84375 C 203.46875 128.761719 203.195312 128.792969 202.964844 128.929688 L 200.828125 130.171875 C 200.425781 130.40625 200.257812 130.902344 200.433594 131.335938 C 201.117188 133.011719 202.171875 134.371094 203.570312 135.371094 C 204.984375 136.382812 206.6875 136.898438 208.632812 136.898438 C 210.183594 136.898438 211.628906 136.550781 212.933594 135.863281 C 214.253906 135.171875 215.3125 134.191406 216.078125 132.945312 C 216.839844 131.695312 217.226562 130.277344 217.226562 128.738281 C 217.226562 127.054688 216.761719 125.539062 215.84375 124.25 Z M 215.84375 124.25 " fill-opacity="1" fill-rule="nonzero"/><g transform="matrix(1, 0, 0, 1, 45, 329)"><g clip-path="url(#22444c1f85)"><g clip-path="url(#6161b4e6ae)"><g fill="#ffffff" fill-opacity="1"><g transform="translate(0.327215, 33.301381)"><g><path d="M 20.765625 0 L 16.265625 0 L 14.640625 -4.984375 L 6.34375 -4.984375 L 4.71875 0 L 0.328125 0 L 7.796875 -21.640625 L 13.296875 -21.640625 Z M 10.28125 -17.125 L 7.5 -8.578125 L 13.453125 -8.578125 L 10.65625 -17.125 Z M 10.28125 -17.125 "/></g></g></g></g><g fill="#ffffff" fill-opacity="1"><g transform="translate(21.420484, 33.301381)"><g><path d="M 8.0625 0.3125 C 6.769531 0.3125 5.628906 0 4.640625 -0.625 C 3.648438 -1.25 2.875 -2.195312 2.3125 -3.46875 C 1.75 -4.738281 1.46875 -6.300781 1.46875 -8.15625 C 1.46875 -10.019531 1.753906 -11.582031 2.328125 -12.84375 C 2.910156 -14.113281 3.710938 -15.0625 4.734375 -15.6875 C 5.753906 -16.320312 6.9375 -16.640625 8.28125 -16.640625 C 9.289062 -16.640625 10.164062 -16.460938 10.90625 -16.109375 C 11.65625 -15.753906 12.285156 -15.207031 12.796875 -14.46875 L 13.109375 -14.546875 L 13.109375 -22.875 L 17.21875 -22.875 L 17.21875 0 L 13.109375 0 L 13.109375 -2.109375 L 12.796875 -2.171875 C 12.347656 -1.398438 11.726562 -0.789062 10.9375 -0.34375 C 10.144531 0.09375 9.1875 0.3125 8.0625 0.3125 Z M 9.40625 -3.171875 C 10.550781 -3.171875 11.457031 -3.582031 12.125 -4.40625 C 12.800781 -5.226562 13.140625 -6.476562 13.140625 -8.15625 C 13.140625 -9.832031 12.800781 -11.082031 12.125 -11.90625 C 11.457031 -12.738281 10.550781 -13.15625 9.40625 -13.15625 C 8.195312 -13.15625 7.273438 -12.753906 6.640625 -11.953125 C 6.003906 -11.148438 5.6875 -9.882812 5.6875 -8.15625 C 5.6875 -6.4375 6.003906 -5.175781 6.640625 -4.375 C 7.273438 -3.570312 8.195312 -3.171875 9.40625 -3.171875 Z M 9.40625 -3.171875 "/></g></g></g><g fill="#ffffff" fill-opacity="1"><g transform="translate(40.989112, 33.301381)"><g><path d="M 8.0625 0.3125 C 6.769531 0.3125 5.628906 0 4.640625 -0.625 C 3.648438 -1.25 2.875 -2.195312 2.3125 -3.46875 C 1.75 -4.738281 1.46875 -6.300781 1.46875 -8.15625 C 1.46875 -10.019531 1.753906 -11.582031 2.328125 -12.84375 C 2.910156 -14.113281 3.710938 -15.0625 4.734375 -15.6875 C 5.753906 -16.320312 6.9375 -16.640625 8.28125 -16.640625 C 9.289062 -16.640625 10.164062 -16.460938 10.90625 -16.109375 C 11.65625 -15.753906 12.285156 -15.207031 12.796875 -14.46875 L 13.109375 -14.546875 L 13.109375 -22.875 L 17.21875 -22.875 L 17.21875 0 L 13.109375 0 L 13.109375 -2.109375 L 12.796875 -2.171875 C 12.347656 -1.398438 11.726562 -0.789062 10.9375 -0.34375 C 10.144531 0.09375 9.1875 0.3125 8.0625 0.3125 Z M 9.40625 -3.171875 C 10.550781 -3.171875 11.457031 -3.582031 12.125 -4.40625 C 12.800781 -5.226562 13.140625 -6.476562 13.140625 -8.15625 C 13.140625 -9.832031 12.800781 -11.082031 12.125 -11.90625 C 11.457031 -12.738281 10.550781 -13.15625 9.40625 -13.15625 C 8.195312 -13.15625 7.273438 -12.753906 6.640625 -11.953125 C 6.003906 -11.148438 5.6875 -9.882812 5.6875 -8.15625 C 5.6875 -6.4375 6.003906 -5.175781 6.640625 -4.375 C 7.273438 -3.570312 8.195312 -3.171875 9.40625 -3.171875 Z M 9.40625 -3.171875 "/></g></g></g><g fill="#ffffff" fill-opacity="1"><g transform="translate(60.55774, 33.301381)"><g/></g></g><g fill="#ffffff" fill-opacity="1"><g transform="translate(67.707251, 33.301381)"><g><path d="M 6.359375 0.3125 C 5.316406 0.3125 4.410156 0.117188 3.640625 -0.265625 C 2.867188 -0.648438 2.273438 -1.210938 1.859375 -1.953125 C 1.453125 -2.703125 1.25 -3.597656 1.25 -4.640625 C 1.25 -5.609375 1.453125 -6.421875 1.859375 -7.078125 C 2.273438 -7.734375 2.914062 -8.269531 3.78125 -8.6875 C 4.65625 -9.113281 5.789062 -9.441406 7.1875 -9.671875 C 8.164062 -9.828125 8.910156 -10 9.421875 -10.1875 C 9.929688 -10.375 10.273438 -10.582031 10.453125 -10.8125 C 10.628906 -11.050781 10.71875 -11.351562 10.71875 -11.71875 C 10.71875 -12.238281 10.535156 -12.632812 10.171875 -12.90625 C 9.804688 -13.1875 9.195312 -13.328125 8.34375 -13.328125 C 7.4375 -13.328125 6.570312 -13.125 5.75 -12.71875 C 4.9375 -12.320312 4.226562 -11.789062 3.625 -11.125 L 3.328125 -11.125 L 1.609375 -13.71875 C 2.441406 -14.632812 3.453125 -15.347656 4.640625 -15.859375 C 5.835938 -16.378906 7.144531 -16.640625 8.5625 -16.640625 C 10.71875 -16.640625 12.28125 -16.179688 13.25 -15.265625 C 14.21875 -14.347656 14.703125 -13.046875 14.703125 -11.359375 L 14.703125 -4.265625 C 14.703125 -3.535156 15.019531 -3.171875 15.65625 -3.171875 C 15.90625 -3.171875 16.148438 -3.210938 16.390625 -3.296875 L 16.59375 -3.234375 L 16.890625 -0.390625 C 16.660156 -0.234375 16.34375 -0.109375 15.9375 -0.015625 C 15.53125 0.078125 15.085938 0.125 14.609375 0.125 C 13.628906 0.125 12.863281 -0.0625 12.3125 -0.4375 C 11.769531 -0.8125 11.378906 -1.398438 11.140625 -2.203125 L 10.828125 -2.234375 C 10.035156 -0.535156 8.546875 0.3125 6.359375 0.3125 Z M 7.671875 -2.75 C 8.617188 -2.75 9.375 -3.066406 9.9375 -3.703125 C 10.507812 -4.335938 10.796875 -5.222656 10.796875 -6.359375 L 10.796875 -8.015625 L 10.515625 -8.078125 C 10.265625 -7.878906 9.9375 -7.710938 9.53125 -7.578125 C 9.132812 -7.453125 8.5625 -7.320312 7.8125 -7.1875 C 6.925781 -7.039062 6.285156 -6.785156 5.890625 -6.421875 C 5.503906 -6.066406 5.3125 -5.5625 5.3125 -4.90625 C 5.3125 -4.195312 5.519531 -3.660156 5.9375 -3.296875 C 6.351562 -2.929688 6.929688 -2.75 7.671875 -2.75 Z M 7.671875 -2.75 "/></g></g></g><g fill="#ffffff" fill-opacity="1"><g transform="translate(84.92232, 33.301381)"><g/></g></g><g fill="#ffffff" fill-opacity="1"><g transform="translate(92.07183, 33.301381)"><g><path d="M 2.359375 0 L 2.359375 -22.875 L 6.453125 -22.875 L 6.453125 -14.1875 L 6.765625 -14.140625 C 7.304688 -14.929688 7.972656 -15.546875 8.765625 -15.984375 C 9.554688 -16.421875 10.507812 -16.640625 11.625 -16.640625 C 15.21875 -16.640625 17.015625 -14.597656 17.015625 -10.515625 L 17.015625 0 L 12.921875 0 L 12.921875 -9.984375 C 12.921875 -11.097656 12.695312 -11.90625 12.25 -12.40625 C 11.8125 -12.914062 11.125 -13.171875 10.1875 -13.171875 C 9.039062 -13.171875 8.128906 -12.785156 7.453125 -12.015625 C 6.785156 -11.253906 6.453125 -10.066406 6.453125 -8.453125 L 6.453125 0 Z M 2.359375 0 "/></g></g></g><g fill="#ffffff" fill-opacity="1"><g transform="translate(111.19639, 33.301381)"><g><path d="M 16.140625 -7.234375 L 5.640625 -7.234375 C 5.753906 -5.816406 6.15625 -4.785156 6.84375 -4.140625 C 7.539062 -3.492188 8.488281 -3.171875 9.6875 -3.171875 C 10.625 -3.171875 11.378906 -3.34375 11.953125 -3.6875 C 12.535156 -4.039062 13.003906 -4.570312 13.359375 -5.28125 L 13.671875 -5.28125 L 16.40625 -3.53125 C 15.863281 -2.394531 15.054688 -1.46875 13.984375 -0.75 C 12.910156 -0.0390625 11.476562 0.3125 9.6875 0.3125 C 8 0.3125 6.539062 -0.00390625 5.3125 -0.640625 C 4.082031 -1.285156 3.132812 -2.242188 2.46875 -3.515625 C 1.800781 -4.785156 1.46875 -6.332031 1.46875 -8.15625 C 1.46875 -10.007812 1.816406 -11.570312 2.515625 -12.84375 C 3.210938 -14.113281 4.160156 -15.0625 5.359375 -15.6875 C 6.554688 -16.320312 7.898438 -16.640625 9.390625 -16.640625 C 11.691406 -16.640625 13.457031 -16.023438 14.6875 -14.796875 C 15.914062 -13.578125 16.53125 -11.78125 16.53125 -9.40625 C 16.53125 -8.550781 16.5 -7.890625 16.4375 -7.421875 Z M 12.609375 -9.890625 C 12.566406 -11.128906 12.273438 -12.03125 11.734375 -12.59375 C 11.203125 -13.164062 10.421875 -13.453125 9.390625 -13.453125 C 7.316406 -13.453125 6.097656 -12.265625 5.734375 -9.890625 Z M 12.609375 -9.890625 "/></g></g></g><g fill="#ffffff" fill-opacity="1"><g transform="translate(128.944342, 33.301381)"><g><path d="M 6.359375 0.3125 C 5.316406 0.3125 4.410156 0.117188 3.640625 -0.265625 C 2.867188 -0.648438 2.273438 -1.210938 1.859375 -1.953125 C 1.453125 -2.703125 1.25 -3.597656 1.25 -4.640625 C 1.25 -5.609375 1.453125 -6.421875 1.859375 -7.078125 C 2.273438 -7.734375 2.914062 -8.269531 3.78125 -8.6875 C 4.65625 -9.113281 5.789062 -9.441406 7.1875 -9.671875 C 8.164062 -9.828125 8.910156 -10 9.421875 -10.1875 C 9.929688 -10.375 10.273438 -10.582031 10.453125 -10.8125 C 10.628906 -11.050781 10.71875 -11.351562 10.71875 -11.71875 C 10.71875 -12.238281 10.535156 -12.632812 10.171875 -12.90625 C 9.804688 -13.1875 9.195312 -13.328125 8.34375 -13.328125 C 7.4375 -13.328125 6.570312 -13.125 5.75 -12.71875 C 4.9375 -12.320312 4.226562 -11.789062 3.625 -11.125 L 3.328125 -11.125 L 1.609375 -13.71875 C 2.441406 -14.632812 3.453125 -15.347656 4.640625 -15.859375 C 5.835938 -16.378906 7.144531 -16.640625 8.5625 -16.640625 C 10.71875 -16.640625 12.28125 -16.179688 13.25 -15.265625 C 14.21875 -14.347656 14.703125 -13.046875 14.703125 -11.359375 L 14.703125 -4.265625 C 14.703125 -3.535156 15.019531 -3.171875 15.65625 -3.171875 C 15.90625 -3.171875 16.148438 -3.210938 16.390625 -3.296875 L 16.59375 -3.234375 L 16.890625 -0.390625 C 16.660156 -0.234375 16.34375 -0.109375 15.9375 -0.015625 C 15.53125 0.078125 15.085938 0.125 14.609375 0.125 C 13.628906 0.125 12.863281 -0.0625 12.3125 -0.4375 C 11.769531 -0.8125 11.378906 -1.398438 11.140625 -2.203125 L 10.828125 -2.234375 C 10.035156 -0.535156 8.546875 0.3125 6.359375 0.3125 Z M 7.671875 -2.75 C 8.617188 -2.75 9.375 -3.066406 9.9375 -3.703125 C 10.507812 -4.335938 10.796875 -5.222656 10.796875 -6.359375 L 10.796875 -8.015625 L 10.515625 -8.078125 C 10.265625 -7.878906 9.9375 -7.710938 9.53125 -7.578125 C 9.132812 -7.453125 8.5625 -7.320312 7.8125 -7.1875 C 6.925781 -7.039062 6.285156 -6.785156 5.890625 -6.421875 C 5.503906 -6.066406 5.3125 -5.5625 5.3125 -4.90625 C 5.3125 -4.195312 5.519531 -3.660156 5.9375 -3.296875 C 6.351562 -2.929688 6.929688 -2.75 7.671875 -2.75 Z M 7.671875 -2.75 "/></g></g></g><g fill="#ffffff" fill-opacity="1"><g transform="translate(146.159401, 33.301381)"><g><path d="M 8.0625 0.3125 C 6.769531 0.3125 5.628906 0 4.640625 -0.625 C 3.648438 -1.25 2.875 -2.195312 2.3125 -3.46875 C 1.75 -4.738281 1.46875 -6.300781 1.46875 -8.15625 C 1.46875 -10.019531 1.753906 -11.582031 2.328125 -12.84375 C 2.910156 -14.113281 3.710938 -15.0625 4.734375 -15.6875 C 5.753906 -16.320312 6.9375 -16.640625 8.28125 -16.640625 C 9.289062 -16.640625 10.164062 -16.460938 10.90625 -16.109375 C 11.65625 -15.753906 12.285156 -15.207031 12.796875 -14.46875 L 13.109375 -14.546875 L 13.109375 -22.875 L 17.21875 -22.875 L 17.21875 0 L 13.109375 0 L 13.109375 -2.109375 L 12.796875 -2.171875 C 12.347656 -1.398438 11.726562 -0.789062 10.9375 -0.34375 C 10.144531 0.09375 9.1875 0.3125 8.0625 0.3125 Z M 9.40625 -3.171875 C 10.550781 -3.171875 11.457031 -3.582031 12.125 -4.40625 C 12.800781 -5.226562 13.140625 -6.476562 13.140625 -8.15625 C 13.140625 -9.832031 12.800781 -11.082031 12.125 -11.90625 C 11.457031 -12.738281 10.550781 -13.15625 9.40625 -13.15625 C 8.195312 -13.15625 7.273438 -12.753906 6.640625 -11.953125 C 6.003906 -11.148438 5.6875 -9.882812 5.6875 -8.15625 C 5.6875 -6.4375 6.003906 -5.175781 6.640625 -4.375 C 7.273438 -3.570312 8.195312 -3.171875 9.40625 -3.171875 Z M 9.40625 -3.171875 "/></g></g></g><g fill="#ffffff" fill-opacity="1"><g transform="translate(165.728039, 33.301381)"><g><path d="M 4.390625 -18.28125 C 3.648438 -18.28125 3.046875 -18.503906 2.578125 -18.953125 C 2.117188 -19.398438 1.890625 -19.976562 1.890625 -20.6875 C 1.890625 -21.394531 2.117188 -21.972656 2.578125 -22.421875 C 3.046875 -22.867188 3.648438 -23.09375 4.390625 -23.09375 C 4.890625 -23.09375 5.332031 -22.988281 5.71875 -22.78125 C 6.101562 -22.570312 6.398438 -22.285156 6.609375 -21.921875 C 6.816406 -21.566406 6.921875 -21.15625 6.921875 -20.6875 C 6.921875 -20.226562 6.816406 -19.816406 6.609375 -19.453125 C 6.398438 -19.085938 6.101562 -18.800781 5.71875 -18.59375 C 5.332031 -18.382812 4.890625 -18.28125 4.390625 -18.28125 Z M 2.359375 0 L 2.359375 -16.328125 L 6.453125 -16.328125 L 6.453125 0 Z M 2.359375 0 "/></g></g></g><g fill="#ffffff" fill-opacity="1"><g transform="translate(174.520608, 33.301381)"><g><path d="M 2.359375 0 L 2.359375 -16.328125 L 6.296875 -16.328125 L 6.296875 -13.921875 L 6.59375 -13.859375 C 7.613281 -15.710938 9.265625 -16.640625 11.546875 -16.640625 C 13.429688 -16.640625 14.8125 -16.125 15.6875 -15.09375 C 16.570312 -14.070312 17.015625 -12.578125 17.015625 -10.609375 L 17.015625 0 L 12.921875 0 L 12.921875 -10.109375 C 12.921875 -11.191406 12.703125 -11.972656 12.265625 -12.453125 C 11.835938 -12.929688 11.144531 -13.171875 10.1875 -13.171875 C 9.007812 -13.171875 8.09375 -12.789062 7.4375 -12.03125 C 6.78125 -11.269531 6.453125 -10.078125 6.453125 -8.453125 L 6.453125 0 Z M 2.359375 0 "/></g></g></g><g fill="#ffffff" fill-opacity="1"><g transform="translate(193.645151, 33.301381)"><g><path d="M 8.46875 6.921875 C 5.769531 6.921875 3.78125 6.523438 2.5 5.734375 C 1.21875 4.953125 0.578125 3.851562 0.578125 2.4375 C 0.578125 1.582031 0.847656 0.878906 1.390625 0.328125 C 1.941406 -0.210938 2.734375 -0.578125 3.765625 -0.765625 L 3.765625 -1.078125 C 3.210938 -1.410156 2.8125 -1.78125 2.5625 -2.1875 C 2.320312 -2.601562 2.203125 -3.082031 2.203125 -3.625 C 2.203125 -4.9375 3.054688 -5.820312 4.765625 -6.28125 L 4.765625 -6.59375 C 3.890625 -7.09375 3.226562 -7.710938 2.78125 -8.453125 C 2.332031 -9.203125 2.109375 -10.101562 2.109375 -11.15625 C 2.109375 -12.238281 2.359375 -13.191406 2.859375 -14.015625 C 3.359375 -14.847656 4.085938 -15.492188 5.046875 -15.953125 C 6.015625 -16.410156 7.171875 -16.640625 8.515625 -16.640625 C 9.867188 -16.640625 10.953125 -16.398438 11.765625 -15.921875 C 12.265625 -16.648438 12.554688 -17.492188 12.640625 -18.453125 L 12.953125 -18.65625 L 15.890625 -17.921875 C 15.804688 -17.140625 15.582031 -16.484375 15.21875 -15.953125 C 14.851562 -15.429688 14.285156 -14.960938 13.515625 -14.546875 L 13.515625 -14.21875 C 14.429688 -13.414062 14.890625 -12.285156 14.890625 -10.828125 C 14.890625 -9.828125 14.632812 -8.925781 14.125 -8.125 C 13.625 -7.320312 12.894531 -6.6875 11.9375 -6.21875 C 10.976562 -5.757812 9.835938 -5.53125 8.515625 -5.53125 L 7.890625 -5.546875 C 7.492188 -5.566406 7.21875 -5.578125 7.0625 -5.578125 C 6.6875 -5.578125 6.390625 -5.472656 6.171875 -5.265625 C 5.960938 -5.066406 5.859375 -4.8125 5.859375 -4.5 C 5.859375 -4.15625 5.992188 -3.882812 6.265625 -3.6875 C 6.546875 -3.5 6.953125 -3.394531 7.484375 -3.375 L 11.140625 -3.234375 C 14.753906 -3.128906 16.5625 -1.578125 16.5625 1.421875 C 16.5625 2.472656 16.289062 3.410156 15.75 4.234375 C 15.21875 5.054688 14.347656 5.707031 13.140625 6.1875 C 11.941406 6.675781 10.382812 6.921875 8.46875 6.921875 Z M 8.515625 -8.40625 C 9.296875 -8.40625 9.910156 -8.632812 10.359375 -9.09375 C 10.804688 -9.5625 11.03125 -10.226562 11.03125 -11.09375 C 11.03125 -11.945312 10.804688 -12.601562 10.359375 -13.0625 C 9.910156 -13.519531 9.296875 -13.75 8.515625 -13.75 C 7.710938 -13.75 7.09375 -13.519531 6.65625 -13.0625 C 6.226562 -12.601562 6.015625 -11.945312 6.015625 -11.09375 C 6.015625 -10.21875 6.226562 -9.550781 6.65625 -9.09375 C 7.09375 -8.632812 7.710938 -8.40625 8.515625 -8.40625 Z M 8.46875 3.953125 C 9.863281 3.953125 10.878906 3.753906 11.515625 3.359375 C 12.160156 2.960938 12.484375 2.453125 12.484375 1.828125 C 12.484375 1.304688 12.316406 0.925781 11.984375 0.6875 C 11.660156 0.445312 11.144531 0.316406 10.4375 0.296875 L 7.203125 0.140625 C 7.097656 0.140625 7 0.132812 6.90625 0.125 C 6.8125 0.125 6.71875 0.125 6.625 0.125 C 5.9375 0.125 5.410156 0.269531 5.046875 0.5625 C 4.691406 0.851562 4.515625 1.265625 4.515625 1.796875 C 4.515625 2.484375 4.84375 3.015625 5.5 3.390625 C 6.164062 3.765625 7.15625 3.953125 8.46875 3.953125 Z M 8.46875 3.953125 "/></g></g></g></g></g></svg>